# xmcd
#
# Track frame offsets:
#	150
#	10951
#	23048
#	35393
#	52060
#	65036
#	80310
#	93279
#	103637
#	112403
#	128505
#	145601
#	163672
#	179116
#	189052
#	200838
#	209477
#	220547
#	231285
#	246855
#
# Disc length: 3486
#
# Revision: 2
# Processed by: cddbd v1.5.1PL0 Copyright (c) Steve Scherf et al.
# Submitted via: audiograbber 1.83.01
# Normalized: r1:DSETVAR1
#
DISCID=1e0d9c14
DTITLE=Various Artist - Stand By Your Man
DYEAR=1998
DGENRE=Country
TTITLE0=Patsy Cline - Crazy
TTITLE1=Billie Jo Spears - Misty Blue
TTITLE2=Cindy morgan - Stand By Your Man
TTITLE3=Marie O'Brien - Loving Him Was Easier
TTITLE4=Jo Ann Houston - Let's Love the Bad Times Away
TTITLE5=Barbara Fairchild - Slippin' Away
TTITLE6=Tina Travis - Last Days of Love
TTITLE7=Barbara Mandrell - Release Me
TTITLE8=Billie Jo Spears - You're My Man
TTITLE9=Anne Murray - Both Sides Now
TTITLE10=Lynn Anderson - Blue Bayou
TTITLE11=Marie O'Brien - For Reasons I've Forgotten
TTITLE12=Jo Ann Houston - If We're Not Back In Love By Monday
TTITLE13=Donna Fargo - Sticks and Stones
TTITLE14=Patsy Cline - I've Loved and Lost
TTITLE15=Billie Jo Spears - Sweet Dreams
TTITLE16=Cindy Morgan - Your Old Love Letters
TTITLE17=Dolly Parton - It Wasn't God Who Made Honky Tonk Angels
TTITLE18=Marie O'Brien - Always On My Mind
TTITLE19=Jo Ann Houston - I Wanna Dance with You
EXTD=
EXTT0=
EXTT1=
EXTT2=
EXTT3=
EXTT4=
EXTT5=
EXTT6=
EXTT7=
EXTT8=
EXTT9=
EXTT10=
EXTT11=
EXTT12=
EXTT13=
EXTT14=
EXTT15=
EXTT16=
EXTT17=
EXTT18=
EXTT19=
PLAYORDER=
